Normalized EMG Linear Envelopes
nRows=126
nColumns=4

endheader
time	 med_gas_r	  soleus_r	 tib_ant_r	
2.3619	  0.006208	  0.020849	  0.004354	
2.43347	  0.006398	  0.019626	  0.004194	
2.50504	  0.006506	  0.018971	  0.004115	
2.57661	  0.006495	  0.019103	  0.004153	
2.64819	  0.006402	  0.019797	  0.004261	
2.71976	  0.006317	  0.020661	  0.004342	
2.79133	  0.006331	  0.021274	  0.004347	
2.8629	  0.006473	  0.021229	  0.004308	
2.93448	  0.006617	  0.020666	  0.004273	
3.00605	  0.006547	  0.020519	  0.004238	
3.07762	  0.006211	  0.021547	  0.004153	
3.14919	  0.005814	  0.023096	  0.003992	
3.22077	  0.005571	  0.023527	  0.003786	
3.29234	  0.005541	  0.022106	  0.003621	
3.36391	  0.005730	  0.019745	  0.003586	
3.43548	  0.006136	  0.017750	  0.003679	
3.50706	  0.006664	  0.016712	  0.003787	
3.57863	  0.007153	  0.016539	  0.003814	
3.6502	  0.007478	  0.016746	  0.003795	
3.72177	  0.007593	  0.016797	  0.003888	
3.79335	  0.007566	  0.016627	  0.004189	
3.86492	  0.007483	  0.016993	  0.004533	
3.93649	  0.007373	  0.019011	  0.004600	
4.00806	  0.007291	  0.022718	  0.004331	
4.07964	  0.007257	  0.025977	  0.003983	
4.15121	  0.007146	  0.026226	  0.003768	
4.22278	  0.006892	  0.023543	  0.003710	
4.29435	  0.006677	  0.020288	  0.003766	
4.36593	  0.006758	  0.018368	  0.003859	
4.4375	  0.007118	  0.018139	  0.003899	
4.50907	  0.007183	  0.018695	  0.003845	
4.58065	  0.005670	  0.018578	  0.003699	
4.65222	  0.001119	  0.017000	  0.003511	
4.72379	 -0.005980	  0.014646	  0.003433	
4.79536	 -0.009565	  0.013800	  0.003778	
4.86694	  0.005061	  0.019009	  0.005066	
4.93851	  0.058022	  0.037290	  0.007840	
5.01008	  0.160108	  0.072776	  0.012043	
5.08165	  0.297329	  0.118854	  0.016562	
5.15323	  0.434057	  0.162371	  0.019990	
5.2248	  0.533325	  0.197345	  0.022200	
5.29637	  0.578373	  0.226913	  0.024621	
5.36794	  0.580733	  0.253166	  0.028541	
5.43952	  0.567516	  0.273139	  0.033735	
5.51109	  0.561160	  0.283293	  0.039505	
5.58266	  0.569793	  0.284137	  0.046306	
5.65423	  0.589953	  0.283874	  0.055088	
5.72581	  0.613648	  0.295226	  0.065047	
5.79738	  0.634334	  0.323121	  0.073067	
5.86895	  0.650171	  0.362288	  0.076538	
5.94052	  0.661570	  0.407927	  0.075475	
6.0121	  0.667335	  0.455119	  0.071842	
6.08367	  0.664600	  0.490768	  0.069699	
6.15524	  0.651012	  0.504539	  0.072515	
6.22681	  0.628865	  0.501725	  0.077619	
6.29839	  0.606363	  0.491669	  0.079174	
6.36996	  0.595340	  0.480267	  0.076007	
6.44153	  0.607148	  0.479358	  0.071333	
6.5131	  0.641859	  0.499546	  0.067560	
6.58468	  0.680590	  0.533514	  0.064592	
6.65625	  0.697665	  0.562038	  0.061157	
6.72782	  0.685220	  0.572011	  0.056514	
6.7994	  0.659303	  0.563143	  0.051755	
6.87097	  0.639545	  0.545508	  0.049181	
6.94254	  0.633452	  0.536911	  0.050070	
7.01411	  0.638091	  0.553754	  0.053388	
7.08569	  0.647760	  0.590139	  0.056413	
7.15726	  0.658581	  0.613941	  0.056876	
7.22883	  0.661303	  0.600682	  0.054758	
7.3004	  0.642053	  0.559643	  0.051611	
7.37198	  0.605201	  0.518227	  0.048983	
7.44355	  0.576269	  0.498594	  0.047885	
7.51512	  0.571876	  0.510017	  0.048304	
7.58669	  0.585973	  0.548428	  0.049356	
7.65827	  0.607105	  0.598535	  0.050570	
7.72984	  0.630933	  0.640149	  0.051762	
7.80141	  0.654609	  0.661299	  0.052085	
7.87298	  0.671552	  0.666821	  0.051157	
7.94456	  0.673423	  0.669519	  0.050314	
8.01613	  0.657420	  0.677997	  0.051059	
8.0877	  0.634646	  0.696181	  0.053060	
8.15927	  0.620677	  0.720833	  0.054794	
8.23085	  0.616915	  0.733738	  0.055612	
8.30242	  0.617391	  0.715325	  0.056188	
8.37399	  0.626606	  0.671041	  0.056911	
8.44556	  0.650433	  0.626678	  0.057122	
8.51714	  0.678816	  0.602654	  0.056463	
8.58871	  0.697755	  0.608300	  0.055757	
8.66028	  0.707459	  0.645336	  0.055785	
8.73185	  0.709341	  0.698942	  0.056163	
8.80343	  0.696648	  0.742133	  0.056360	
8.875	  0.676508	  0.759979	  0.056448	
8.94657	  0.668757	  0.751417	  0.056001	
9.01815	  0.670870	  0.717986	  0.054468	
9.08972	  0.656846	  0.673999	  0.052728	
9.16129	  0.616274	  0.640823	  0.052041	
9.23286	  0.572949	  0.623046	  0.052478	
9.30444	  0.558247	  0.617253	  0.053539	
9.37601	  0.572461	  0.625466	  0.054394	
9.44758	  0.586193	  0.641427	  0.053991	
9.51915	  0.579492	  0.646663	  0.052638	
9.59073	  0.552649	  0.626877	  0.051391	
9.6623	  0.504304	  0.582196	  0.049567	
9.73387	  0.433843	  0.523072	  0.045966	
9.80544	  0.356127	  0.461565	  0.041440	
9.87702	  0.292215	  0.406023	  0.037472	
9.94859	  0.252142	  0.360922	  0.034037	
10.0202	  0.229564	  0.328144	  0.030637	
10.0917	  0.211416	  0.302649	  0.027409	
10.1633	  0.192676	  0.273518	  0.024164	
10.2349	  0.176460	  0.238337	  0.020456	
10.3065	  0.163459	  0.205213	  0.016944	
10.378	  0.149726	  0.178353	  0.015069	
10.4496	  0.131217	  0.154353	  0.015377	
10.5212	  0.106460	  0.130579	  0.016936	
10.5927	  0.078046	  0.109244	  0.018565	
10.6643	  0.051809	  0.093168	  0.019948	
10.7359	  0.032365	  0.081367	  0.020938	
10.8075	  0.020275	  0.071185	  0.021074	
10.879	  0.014081	  0.062213	  0.020544	
10.9506	  0.012721	  0.055731	  0.020270	
11.0222	  0.015085	  0.051930	  0.020818	
11.0937	  0.018747	  0.049384	  0.022018	
11.1653	  0.019897	  0.046324	  0.023401	
11.2369	  0.015649	  0.041763	  0.024520	
11.3085	  0.006938	  0.035931	  0.025248	
